<svg id="bg-bg" xmlns="http://www.w3.org/2000/svg" width="1366" height="1125" viewBox="0 0 1366 1125">
  <rect id="Rectangle_1848" data-name="Rectangle 1848" width="1366" height="1125" fill="#1e1f21"/>
  <g id="rocket_spaceship_space_d" data-name="rocket, spaceship, space, d" transform="translate(1057.427 15.56)" opacity="0.05">
    <path id="Path_6679" data-name="Path 6679" d="M59.007,51.212A51.061,51.061,0,0,0,44.289,10h0a51.053,51.053,0,0,0-14.719,41.21L10,65.716l4.286,12.857H27.143l8.572-15H52.858l8.572,15H74.287l4.286-12.857ZM44.287,42.144a6.428,6.428,0,1,1,6.429-6.428A6.429,6.429,0,0,1,44.287,42.144Z" transform="translate(-10 -10)" fill="none" stroke="#fff" stroke-linecap="round" stroke-linejoin="round" stroke-width="1"/>
    <path id="Path_6680" data-name="Path 6680" d="M45.341,78.75a13.6,13.6,0,0,0,3.993,9.643,13.605,13.605,0,0,0,3.994-9.643Z" transform="translate(-15.048 -19.82)" fill="none" stroke="#fff" stroke-linecap="round" stroke-linejoin="round" stroke-width="1"/>
    <circle id="Ellipse_64" data-name="Ellipse 64" cx="6.429" cy="6.429" r="6.429" transform="translate(27.859 19.287)" fill="none" stroke="#fff" stroke-linecap="round" stroke-linejoin="round" stroke-width="1"/>
  </g>
  <g id="rocket_spaceship_space_g" data-name="rocket, spaceship, space, g" transform="translate(160 200.395)" opacity="0.05">
    <path id="Path_6681" data-name="Path 6681" d="M74.222,101.215A77.9,77.9,0,0,0,60.3,10a77.9,77.9,0,0,0-13.922,91.215Z" transform="translate(12.671 -10)" fill="none" stroke="#fff" stroke-linecap="round" stroke-linejoin="round" stroke-width="1"/>
    <path id="Path_6682" data-name="Path 6682" d="M76.833,73.683H39.869L44.43,60H72.27Z" transform="translate(14.623 31.217)" fill="none" stroke="#fff" stroke-linecap="round" stroke-linejoin="round" stroke-width="1"/>
    <path id="Path_6683" data-name="Path 6683" d="M47.882,41.45A36.485,36.485,0,0,0,25,75.289L51.925,64.136A78.009,78.009,0,0,1,47.882,41.45Z" transform="translate(2.365 15.927)" fill="none" stroke="#fff" stroke-linecap="round" stroke-linejoin="round" stroke-width="1"/>
    <path id="Path_6684" data-name="Path 6684" d="M64.284,41.45A36.482,36.482,0,0,1,87.163,75.289L60.241,64.136A78.01,78.01,0,0,0,64.284,41.45Z" transform="translate(31.418 15.927)" fill="none" stroke="#fff" stroke-linecap="round" stroke-linejoin="round" stroke-width="1"/>
    <circle id="Ellipse_65" data-name="Ellipse 65" cx="9.003" cy="9.003" r="9.003" transform="translate(63.972 36.724)" fill="none" stroke="#fff" stroke-linecap="round" stroke-linejoin="round" stroke-width="1"/>
    <path id="Path_6685" data-name="Path 6685" d="M42.107,86.1A25.883,25.883,0,0,0,46.1,80.9,25.765,25.765,0,0,1,42.107,86.1Z" transform="translate(16.468 48.444)" fill="none" stroke="#fff" stroke-linecap="round" stroke-linejoin="round" stroke-width="1"/>
    <path id="Path_6686" data-name="Path 6686" d="M59.7,86.1A26.016,26.016,0,0,1,55.705,80.9,25.9,25.9,0,0,0,59.7,86.1Z" transform="translate(27.678 48.444)" fill="none" stroke="#fff" stroke-linecap="round" stroke-linejoin="round" stroke-width="1"/>
    <path id="Path_6687" data-name="Path 6687" d="M155.95,104.426H10A18.243,18.243,0,0,1,28.244,86.184a18.052,18.052,0,0,1,1.866.093,22.788,22.788,0,0,1,42.459,1.54A25.652,25.652,0,0,0,76.134,74.78H89.818a25.664,25.664,0,0,0,3.563,13.037,22.79,22.79,0,0,1,42.461-1.54,18.005,18.005,0,0,1,1.866-.093A18.241,18.241,0,0,1,155.95,104.426Z" transform="translate(-10 41.524)" fill="none" stroke="#fff" stroke-linecap="round" stroke-linejoin="round" stroke-width="1"/>
  </g>
  <g id="ic-bg-space" transform="translate(493 121.591)" opacity="0.04">
    <path id="Path_6688" data-name="Path 6688" d="M533.433,315.688l-57.714,43.284L479.9,386.6c1.639,10.779-3.358,25.907-11.072,33.621l-70.125,70.1-10-66.078-32.053,24.006L300.549,392.18l24.022-32.053-66.117-10.011,70.133-70.125c7.7-7.73,22.865-12.7,33.653-11.08l27.61,4.206,43.3-57.714c13.821-18.478,38.967-37.145,63.852-48.843a135.244,135.244,0,0,1,30.192-10.415l5.734-1.156C485.183,71.439,395.385,15,292.241,15,139.145,15,14.989,139.108,14.989,292.2c0,153.128,124.164,277.212,277.252,277.212,153.136,0,277.236-124.085,277.236-277.212,0-5.457-.5-10.779-.816-16.157C558.27,292,545.844,306.389,533.433,315.688Z" transform="translate(24.525 -15)" fill="none" stroke="#fff" stroke-linecap="round" stroke-linejoin="round" stroke-width="3"/>
    <path id="Path_6689" data-name="Path 6689" d="M284.277,34.137c-24.885,11.7-50.024,30.366-63.852,48.843l-43.3,57.714-27.61-4.206c-10.787-1.608-25.954,3.358-33.653,11.08L45.731,217.694,111.848,227.7,87.826,259.758l56.106,56.067,32.053-24.006,10,66.078,70.125-70.1c7.722-7.714,12.712-22.842,11.072-33.621L263,226.549l57.714-43.283c18.478-13.844,37.161-38.991,48.828-63.876A98.084,98.084,0,0,1,284.277,34.137Z" transform="translate(237.263 117.43)" fill="none" stroke="#fff" stroke-linecap="round" stroke-linejoin="round" stroke-width="3"/>
    <path id="Path_6690" data-name="Path 6690" d="M106.041,47.133A135.376,135.376,0,0,0,75.849,57.548,98.076,98.076,0,0,0,161.1,142.792a136.5,136.5,0,0,0,10.447-30.152l16.379-81.886Z" transform="translate(445.684 94.02)" fill="none" stroke="#fff" stroke-linecap="round" stroke-linejoin="round" stroke-width="3"/>
    <path id="Path_6691" data-name="Path 6691" d="M363.111,128.114C236.358,254.828,87.934,311.893,31.614,255.589c-37.05-37.066-24.774-114,23.879-198.375C6.84,141.586-5.436,218.522,31.614,255.589,87.934,311.893,236.358,254.828,363.111,128.114Z" transform="translate(-10 277.119)" fill="none" stroke="#fff" stroke-linecap="round" stroke-linejoin="round" stroke-width="3"/>
  </g>
  <g id="rocket_spaceship_space_q" data-name="rocket, spaceship, space, q" transform="translate(52 740.896)" opacity="0.05">
    <path id="Path_13156" data-name="Path 13156" d="M56.8,88.254H39.545L41.609,80H54.736Z" transform="translate(-15.159 -22.224)" fill="none" stroke="#fff" stroke-linecap="round" stroke-linejoin="round" stroke-width="1"/>
    <path id="Path_13157" data-name="Path 13157" d="M16.19,58.732A21.11,21.11,0,0,0,10,73.721a8.753,8.753,0,0,0,12.381,0A21.1,21.1,0,0,0,16.19,58.732Z" transform="translate(-10 -18.51)" fill="none" stroke="#fff" stroke-linecap="round" stroke-linejoin="round" stroke-width="1"/>
    <path id="Path_13158" data-name="Path 13158" d="M33.783,66.249l-9.759,3a21.372,21.372,0,0,1,.806,5.783L38.9,77.6h0A46.4,46.4,0,0,1,33.783,66.249Z" transform="translate(-12.449 -19.823)" fill="none" stroke="#fff" stroke-linecap="round" stroke-linejoin="round" stroke-width="1"/>
    <path id="Path_13159" data-name="Path 13159" d="M12.539,78.713a14.028,14.028,0,0,0,4.093,9.316,14.037,14.037,0,0,0,4.1-9.314A8.714,8.714,0,0,1,12.539,78.713Z" transform="translate(-10.443 -21.999)" fill="none" stroke="#fff" stroke-linecap="round" stroke-linejoin="round" stroke-width="1"/>
    <path id="Path_13160" data-name="Path 13160" d="M81.19,58.732a21.107,21.107,0,0,1,6.19,14.989,8.753,8.753,0,0,1-12.381,0A21.1,21.1,0,0,1,81.19,58.732Z" transform="translate(-21.351 -18.51)" fill="none" stroke="#fff" stroke-linecap="round" stroke-linejoin="round" stroke-width="1"/>
    <path id="Path_13161" data-name="Path 13161" d="M63.07,66.249l9.758,3a21.4,21.4,0,0,0-.8,5.783L57.955,77.6h0A46.366,46.366,0,0,0,63.07,66.249Z" transform="translate(-18.374 -19.823)" fill="none" stroke="#fff" stroke-linecap="round" stroke-linejoin="round" stroke-width="1"/>
    <path id="Path_13162" data-name="Path 13162" d="M85.729,78.713a14.024,14.024,0,0,1-4.093,9.316,14.041,14.041,0,0,1-4.1-9.314A8.712,8.712,0,0,0,85.729,78.713Z" transform="translate(-21.794 -21.999)" fill="none" stroke="#fff" stroke-linecap="round" stroke-linejoin="round" stroke-width="1"/>
    <path id="Path_13163" data-name="Path 13163" d="M57.479,23.711a17.519,17.519,0,0,1-18.97,0A46.506,46.506,0,0,1,47.994,10,46.5,46.5,0,0,1,57.479,23.711Z" transform="translate(-14.978 -10)" fill="none" stroke="#fff" stroke-linecap="round" stroke-linejoin="round" stroke-width="1"/>
    <path id="Path_13164" data-name="Path 13164" d="M56.6,26.611a17.519,17.519,0,0,1-18.97,0,46.772,46.772,0,0,0,2.919,44.067H53.673A46.766,46.766,0,0,0,56.6,26.611Z" transform="translate(-14.096 -12.9)" fill="none" stroke="#fff" stroke-linecap="round" stroke-linejoin="round" stroke-width="1"/>
    <circle id="Ellipse_67" data-name="Ellipse 67" cx="6.19" cy="6.19" r="6.19" transform="translate(26.825 26.825)" fill="none" stroke="#fff" stroke-linecap="round" stroke-linejoin="round" stroke-width="1"/>
  </g>
  <g id="rocket_spaceship_space_r" data-name="rocket, spaceship, space, r" transform="translate(910 949.404)" opacity="0.05">
    <path id="Path_13165" data-name="Path 13165" d="M20,90A15,15,0,0,0,35,75V43.174a15,15,0,0,0-15,15Z" transform="translate(-20 -9.999)" fill="none" stroke="#fff" stroke-linecap="round" stroke-linejoin="round" stroke-width="1"/>
    <path id="Path_13166" data-name="Path 13166" d="M80,90A15,15,0,0,1,65,75V43.174a15,15,0,0,1,15,15Z" transform="translate(-20 -9.999)" fill="none" stroke="#fff" stroke-linecap="round" stroke-linejoin="round" stroke-width="1"/>
    <path id="Path_13167" data-name="Path 13167" d="M46.251,86.252a3.75,3.75,0,0,0,7.5,0V46.922a3.75,3.75,0,0,0-7.5,0Z" transform="translate(-20 -9.999)" fill="none" stroke="#fff" stroke-linecap="round" stroke-linejoin="round" stroke-width="1"/>
    <path id="Path_13168" data-name="Path 13168" d="M65.9,24.19a24.724,24.724,0,0,1-31.807,0,32.466,32.466,0,0,1,5.4-7.166h0A32.488,32.488,0,0,1,50,10a32.525,32.525,0,0,1,10.511,7.026h0A32.525,32.525,0,0,1,65.9,24.19Z" transform="translate(-20 -9.999)" fill="none" stroke="#fff" stroke-linecap="round" stroke-linejoin="round" stroke-width="1"/>
    <path id="Path_13169" data-name="Path 13169" d="M65.9,24.19a24.724,24.724,0,0,1-31.807,0A32.213,32.213,0,0,0,30,39.938v4.106a14.933,14.933,0,0,1,5-.871V75a14.91,14.91,0,0,1-.872,5H46.25V46.922a3.75,3.75,0,0,1,7.5,0V80H65.871A14.935,14.935,0,0,1,65,75V43.174a14.916,14.916,0,0,1,5,.871V39.939A32.224,32.224,0,0,0,65.9,24.19Z" transform="translate(-20 -9.999)" fill="none" stroke="#fff" stroke-linecap="round" stroke-linejoin="round" stroke-width="1"/>
  </g>
  <g id="rocket_spaceship_space_o" data-name="rocket, spaceship, space, o" transform="translate(557.875 379.952)" opacity="0.05">
    <path id="Path_13144" data-name="Path 13144" d="M23.106,60.283,19.6,64.96l8.181,8.179,4.673-3.506Z" transform="translate(-13.465 -28.149)" fill="none" stroke="#fff" stroke-linecap="round" stroke-linejoin="round" stroke-width="1"/>
    <path id="Path_13145" data-name="Path 13145" d="M25.13,39.452a6.468,6.468,0,0,0-4.905,1.614L10,51.289l9.64,1.46,0-.006,9.513-12.682Z" transform="translate(-10 -20.614)" fill="none" stroke="#fff" stroke-linecap="round" stroke-linejoin="round" stroke-width="1"/>
    <path id="Path_13146" data-name="Path 13146" d="M53.013,64.05l-.61-4.029L39.72,69.535l0,0,1.458,9.642L51.4,68.953A6.455,6.455,0,0,0,53.013,64.05Z" transform="translate(-20.726 -28.054)" fill="none" stroke="#fff" stroke-linecap="round" stroke-linejoin="round" stroke-width="1"/>
    <path id="Path_13147" data-name="Path 13147" d="M50.227,16.118a26.237,26.237,0,0,0-9.31,7.12l-15.831,21.1,9.348,9.35L55.541,37.864a26.282,26.282,0,0,0,7.118-9.313A14.306,14.306,0,0,1,50.227,16.118Z" transform="translate(-15.445 -12.208)" fill="none" stroke="#fff" stroke-linecap="round" stroke-linejoin="round" stroke-width="1"/>
    <path id="Path_13148" data-name="Path 13148" d="M68.828,12.388a19.794,19.794,0,0,0-4.4,1.522A14.306,14.306,0,0,0,76.857,26.343a19.888,19.888,0,0,0,1.525-4.4L80.769,10Z" transform="translate(-29.644 -10)" fill="none" stroke="#fff" stroke-linecap="round" stroke-linejoin="round" stroke-width="1"/>
    <path id="Path_13149" data-name="Path 13149" d="M63.088,36.347a4.34,4.34,0,1,1-4.339-4.34A4.341,4.341,0,0,1,63.088,36.347Z" transform="translate(-26.029 -17.943)" fill="none" stroke="#fff" stroke-linecap="round" stroke-linejoin="round" stroke-width="1"/>
    <path id="Path_13150" data-name="Path 13150" d="M10,84.225A10.228,10.228,0,0,0,20.225,74,10.223,10.223,0,0,0,10,84.225Z" transform="translate(-10 -33.1)" fill="none" stroke="#fff" stroke-linecap="round" stroke-linejoin="round" stroke-width="1"/>
  </g>
  <g id="rocket_spaceship_space_w" data-name="rocket, spaceship, space, w" transform="translate(1189 668.582)" opacity="0.05">
    <path id="Path_13189" data-name="Path 13189" d="M39.669,69.481,30.52,60.33l5.6-3.549,7.1,7.1Z" transform="translate(-10 -10)" fill="none" stroke="#fff" stroke-linecap="round" stroke-linejoin="round" stroke-width="1"/>
    <path id="Path_13190" data-name="Path 13190" d="M47.177,36.759a105.591,105.591,0,0,1,10.042-12.2H39.98A20,20,0,0,0,26.055,31.37l-4.192,5.392Z" transform="translate(-10 -10)" fill="none" stroke="#fff" stroke-linecap="round" stroke-linejoin="round" stroke-width="1"/>
    <path id="Path_13191" data-name="Path 13191" d="M47.177,36.759l-25.314,0L10,52.014l4.768,4.768a15.1,15.1,0,0,1,21.357,0A103.024,103.024,0,0,1,47.177,36.759Z" transform="translate(-10 -10)" fill="none" stroke="#fff" stroke-linecap="round" stroke-linejoin="round" stroke-width="1"/>
    <path id="Path_13192" data-name="Path 13192" d="M63.242,52.822a105.93,105.93,0,0,0,12.2-10.038V60.017a20,20,0,0,1-6.811,13.927l-5.392,4.191Z" transform="translate(-10 -10)" fill="none" stroke="#fff" stroke-linecap="round" stroke-linejoin="round" stroke-width="1"/>
    <path id="Path_13193" data-name="Path 13193" d="M63.242,52.822l0,25.313L47.986,90l-4.768-4.77a15.1,15.1,0,0,0,0-21.354A103.215,103.215,0,0,0,63.242,52.822Z" transform="translate(-10 -10)" fill="none" stroke="#fff" stroke-linecap="round" stroke-linejoin="round" stroke-width="1"/>
    <path id="Path_13194" data-name="Path 13194" d="M43.314,42.622a103.341,103.341,0,0,0-7.189,14.161l7.094,7.1a103.95,103.95,0,0,0,14.159-7.19Z" transform="translate(-10 -10)" fill="none" stroke="#fff" stroke-linecap="round" stroke-linejoin="round" stroke-width="1"/>
    <path id="Path_13195" data-name="Path 13195" d="M57.377,56.688,43.314,42.622A104.48,104.48,0,0,1,58.759,22.938,44.05,44.05,0,0,1,90,10,44.039,44.039,0,0,1,77.063,41.24,104.469,104.469,0,0,1,57.377,56.688Z" transform="translate(-10 -10)" fill="none" stroke="#fff" stroke-linecap="round" stroke-linejoin="round" stroke-width="1"/>
    <path id="Path_13196" data-name="Path 13196" d="M76.274,29.827a4.315,4.315,0,1,1,0-6.1A4.31,4.31,0,0,1,76.274,29.827Z" transform="translate(-10 -10)" fill="none" stroke="#fff" stroke-linecap="round" stroke-linejoin="round" stroke-width="1"/>
    <path id="Path_13197" data-name="Path 13197" d="M47.3,46.6l9.151-9.15a4.313,4.313,0,1,1,6.1,6.1L53.4,52.705Z" transform="translate(-10 -10)" fill="none" stroke="#fff" stroke-linecap="round" stroke-linejoin="round" stroke-width="1"/>
    <path id="Path_13198" data-name="Path 13198" d="M25.676,65.173,15,85,34.825,74.325,15,85Z" transform="translate(-10 -10)" fill="none" stroke="#fff" stroke-linecap="round" stroke-linejoin="round" stroke-width="1"/>
  </g>
</svg>
